<svg width="150" height="50" viewBox="0 0 150 50" fill="none" xmlns="http://www.w3.org/2000/svg">
<path d="M9.63188 49.9974C9.24431 49.9974 8.8661 49.9923 8.48156 49.9834C7.68497 49.9727 6.89024 49.9015 6.10389 49.7702C5.37065 49.6404 4.66035 49.3991 3.9964 49.054C3.33854 48.7119 2.73851 48.2632 2.21932 47.7252C1.6926 47.1936 1.25409 46.577 0.921157 45.8998C0.584553 45.2183 0.351604 44.4877 0.230423 43.7337C0.0995577 42.9234 0.0287544 42.1041 0.0186231 41.2828C0.0105582 41.0071 0 40.0893 0 40.0893V9.89404C0 9.89404 0.0112452 8.99029 0.0186868 8.72477C0.0283873 7.90479 0.098779 7.08676 0.229253 6.27775C0.350657 5.52161 0.583787 4.78896 0.920572 4.10518C1.25228 3.42851 1.68836 2.81144 2.2119 2.27789C2.73485 1.73928 3.33679 1.2883 3.99578 0.941402C4.6582 0.597477 5.36716 0.357802 6.09891 0.230406C6.88785 0.0978199 7.68534 0.0261373 8.48469 0.01596L9.63251 0H140.361L141.523 0.0166005C142.315 0.0262721 143.105 0.0973152 143.887 0.229125C144.626 0.358119 145.342 0.599466 146.012 0.945232C147.333 1.64434 148.407 2.7504 149.084 4.10837C149.416 4.78743 149.645 5.5141 149.765 6.26371C149.897 7.07936 149.971 7.90382 149.986 8.73052C149.99 9.1007 149.99 9.49833 149.99 9.89404C150 10.3842 150 10.8508 150 11.3211V38.6775C150 39.1523 150 39.6157 149.99 40.0829C149.99 40.508 149.99 40.8973 149.985 41.2981C149.97 42.1101 149.897 42.9198 149.768 43.7209C149.649 44.4804 149.417 45.2166 149.081 45.9037C148.745 46.5735 148.309 47.1848 147.789 47.715C147.269 48.2559 146.668 48.7072 146.009 49.0516C145.341 49.3992 144.625 49.6415 143.887 49.7702C143.101 49.9022 142.306 49.9734 141.509 49.9834C141.136 49.9923 140.746 49.9974 140.368 49.9974L138.989 50L9.63188 49.9974Z" fill="black"/>
<path d="M35.9346 25.3928C35.9467 24.3021 36.1962 23.2326 36.66 22.2839C37.1238 21.3351 37.7868 20.5381 38.5872 19.9667C38.0787 19.1236 37.4079 18.4297 36.628 17.9403C35.8482 17.4508 34.9807 17.1792 34.0946 17.147C32.2045 16.9166 30.372 18.4601 29.4088 18.4601C28.427 18.4601 26.944 17.1698 25.347 17.208C24.3141 17.2467 23.3074 17.5955 22.425 18.2202C21.5427 18.845 20.8148 19.7244 20.3122 20.7729C18.1353 25.1488 19.7591 31.5798 21.8444 35.117C22.8877 36.849 24.1071 38.7837 25.7026 38.7151C27.2639 38.6399 27.847 37.5592 29.7316 37.5592C31.5988 37.5592 32.1459 38.7151 33.7737 38.6715C35.4491 38.6399 36.5046 36.9318 37.5114 35.1833C38.261 33.9492 38.8378 32.5852 39.2205 31.1419C38.2472 30.6639 37.4166 29.8639 36.8323 28.8416C36.2479 27.8192 35.9357 26.6198 35.9346 25.3928V25.3928Z" fill="white"/>
<path d="M32.8597 14.8207C33.7732 13.5476 34.2232 11.9112 34.1142 10.259C32.7187 10.4292 31.4295 11.2036 30.5037 12.4279C30.0511 13.026 29.7044 13.7218 29.4835 14.4756C29.2626 15.2293 29.1718 16.0262 29.2163 16.8207C29.9144 16.8291 30.605 16.6534 31.236 16.307C31.8671 15.9605 32.4223 15.4524 32.8597 14.8207Z" fill="white"/>
<path d="M55.6705 34.3305H50.3425L49.063 38.7168H46.8063L51.8529 22.4884H54.1975L59.2441 38.7168H56.9489L55.6705 34.3305ZM50.8943 32.3064H55.1177L53.0357 25.1876H52.9774L50.8943 32.3064Z" fill="white"/>
<path d="M70.143 32.8017C70.143 36.4785 68.448 38.8408 65.8901 38.8408C65.2421 38.8801 64.5977 38.7068 64.0306 38.3407C63.4635 37.9746 62.9967 37.4305 62.6836 36.7707H62.6352V42.6311H60.5433V26.8851H62.5682V28.8531H62.6066C62.9341 28.1964 63.4088 27.6551 63.9802 27.2868C64.5516 26.9185 65.1984 26.7369 65.8516 26.7613C68.438 26.7613 70.143 29.1351 70.143 32.8017ZM67.9929 32.8017C67.9929 30.4062 66.9266 28.8314 65.2998 28.8314C63.7015 28.8314 62.6264 30.4394 62.6264 32.8017C62.6264 35.1857 63.7015 36.7822 65.2998 36.7822C66.9266 36.7822 67.9929 35.2189 67.9929 32.8017Z" fill="white"/>
<path d="M81.3597 32.8017C81.3597 36.4785 79.6647 38.8407 77.1067 38.8407C76.4588 38.8801 75.8144 38.7068 75.2473 38.3407C74.6802 37.9746 74.2134 37.4305 73.9003 36.7707H73.8519V42.6311H71.76V26.8851H73.7848V28.8531H73.8233C74.1508 28.1964 74.6255 27.6551 75.1969 27.2868C75.7683 26.9185 76.415 26.7369 77.0682 26.7613C79.6548 26.7613 81.3597 29.1351 81.3597 32.8017ZM79.2096 32.8017C79.2096 30.4062 78.1433 28.8314 76.5164 28.8314C74.9181 28.8314 73.8431 30.4394 73.8431 32.8017C73.8431 35.1857 74.9181 36.7822 76.5164 36.7822C78.1433 36.7822 79.2096 35.2188 79.2096 32.8017H79.2096Z" fill="white"/>
<path d="M88.7729 34.1953C88.9279 35.8046 90.2745 36.8612 92.1146 36.8612C93.8778 36.8612 95.1463 35.8045 95.1463 34.3535C95.1463 33.0938 94.3812 32.3396 92.5697 31.8227L90.7582 31.3161C88.1915 30.5963 86.9999 29.2026 86.9999 26.9412C86.9999 24.1412 89.1016 22.2179 92.086 22.2179C95.0397 22.2179 97.0645 24.1412 97.1326 26.9412H95.021C94.8946 25.3217 93.7415 24.3441 92.0563 24.3441C90.3712 24.3441 89.2181 25.3332 89.2181 26.7727C89.2181 27.9201 89.9546 28.5952 91.7562 29.112L93.2963 29.551C96.1642 30.3384 97.3558 31.6759 97.3558 34.0497C97.3558 37.0858 95.2727 38.9874 91.9596 38.9874C88.8597 38.9874 86.7668 37.1305 86.6316 34.1952L88.7729 34.1953Z" fill="white"/>
<path d="M101.87 24.085V26.885H103.808V28.8082H101.87V35.331C101.87 36.3443 102.258 36.8165 103.11 36.8165C103.34 36.8119 103.57 36.7931 103.798 36.7603V38.6721C103.415 38.7552 103.026 38.7928 102.637 38.7844C100.573 38.7844 99.7686 37.8847 99.7686 35.59V28.8082H98.2869V26.885H99.7686V24.085H101.87Z" fill="white"/>
<path d="M104.931 32.8015C104.931 29.0788 106.819 26.7395 109.764 26.7395C112.719 26.7395 114.598 29.0788 114.598 32.8015C114.598 36.5345 112.729 38.8636 109.764 38.8636C106.8 38.8636 104.931 36.5345 104.931 32.8015ZM112.467 32.8015C112.467 30.2478 111.459 28.7406 109.764 28.7406C108.069 28.7406 107.062 30.2593 107.062 32.8015C107.062 35.3655 108.069 36.8612 109.764 36.8612C111.459 36.8612 112.467 35.3655 112.467 32.8015H112.467Z" fill="white"/>
<path d="M116.323 26.885H118.318V28.8989H118.367C118.502 28.2699 118.819 27.7141 119.265 27.3248C119.712 26.9355 120.26 26.7365 120.818 26.7612C121.059 26.7602 121.299 26.7906 121.535 26.8518V29.1235C121.23 29.0155 120.913 28.966 120.595 28.9767C120.291 28.9624 119.988 29.0246 119.707 29.1591C119.425 29.2935 119.173 29.4971 118.966 29.7557C118.758 30.0143 118.602 30.3219 118.507 30.6573C118.412 30.9927 118.381 31.3481 118.415 31.6989V38.7168H116.323L116.323 26.885Z" fill="white"/>
<path d="M131.179 35.2417C130.898 37.3895 129.096 38.8636 126.791 38.8636C123.826 38.8636 121.986 36.5574 121.986 32.8577C121.986 29.1465 123.836 26.7395 126.703 26.7395C129.523 26.7395 131.296 28.9882 131.296 32.5756V33.4077H124.098V33.5545C124.065 33.9899 124.112 34.4286 124.236 34.8414C124.36 35.2541 124.558 35.6315 124.817 35.9485C125.077 36.2655 125.391 36.5148 125.74 36.6798C126.088 36.8449 126.463 36.9219 126.839 36.9059C127.334 36.9596 127.83 36.8267 128.254 36.5269C128.678 36.227 129.007 35.7763 129.193 35.2417L131.179 35.2417ZM124.108 31.7104H129.203C129.222 31.3188 129.17 30.927 129.053 30.5595C128.935 30.192 128.753 29.8568 128.518 29.5748C128.283 29.2928 128.001 29.0702 127.689 28.921C127.376 28.7717 127.041 28.699 126.703 28.7074C126.363 28.7051 126.025 28.7811 125.71 28.931C125.394 29.081 125.108 29.3019 124.867 29.5811C124.625 29.8603 124.434 30.1922 124.304 30.5576C124.174 30.9231 124.107 31.3149 124.108 31.7104V31.7104Z" fill="white"/>
<path d="M50.6321 10.2731C51.0706 10.2366 51.5107 10.3135 51.9206 10.4983C52.3304 10.6832 52.6998 10.9713 53.0021 11.342C53.3045 11.7126 53.5322 12.1566 53.6688 12.6417C53.8055 13.1269 53.8477 13.6413 53.7924 14.1477C53.7924 16.6389 52.6327 18.0709 50.6321 18.0709H48.2061V10.2731H50.6321ZM49.2492 16.9681H50.5155C50.8289 16.9899 51.1425 16.9302 51.4336 16.7935C51.7246 16.6568 51.9857 16.4464 52.1978 16.1778C52.41 15.9092 52.5679 15.589 52.6601 15.2405C52.7522 14.8921 52.7763 14.5242 52.7305 14.1636C52.7729 13.8045 52.7464 13.4388 52.6529 13.093C52.5593 12.7471 52.401 12.4295 52.1893 12.163C51.9777 11.8965 51.7178 11.6877 51.4284 11.5514C51.1391 11.4152 50.8273 11.355 50.5155 11.3751H49.2492V16.9681Z" fill="white"/>
<path d="M54.9709 15.126C54.939 14.7393 54.9771 14.3491 55.0828 13.9805C55.1884 13.6119 55.3592 13.273 55.5843 12.9855C55.8093 12.698 56.0837 12.4683 56.3897 12.3111C56.6957 12.1539 57.0266 12.0728 57.3612 12.0728C57.6958 12.0728 58.0267 12.1539 58.3327 12.3111C58.6387 12.4683 58.9131 12.698 59.1381 12.9855C59.3632 13.273 59.534 13.6119 59.6396 13.9805C59.7453 14.3491 59.7834 14.7393 59.7515 15.126C59.784 15.5132 59.7463 15.9039 59.641 16.2731C59.5356 16.6423 59.3649 16.9819 59.1398 17.2699C58.9147 17.558 58.6401 17.7881 58.3338 17.9457C58.0275 18.1032 57.6962 18.1846 57.3612 18.1846C57.0262 18.1846 56.6949 18.1032 56.3886 17.9457C56.0823 17.7881 55.8077 17.558 55.5826 17.2699C55.3575 16.9819 55.1868 16.6423 55.0814 16.2731C54.9761 15.9039 54.9384 15.5132 54.9709 15.126V15.126ZM58.7226 15.126C58.7226 13.8505 58.229 13.1045 57.3628 13.1045C56.4933 13.1045 56.0042 13.8505 56.0042 15.1261C56.0042 16.4119 56.4934 17.1521 57.3628 17.1521C58.2291 17.152 58.7226 16.4067 58.7226 15.126H58.7226Z" fill="white"/>
<path d="M66.1061 18.0708H65.0684L64.0209 13.7368H63.9417L62.8986 18.0708H61.8708L60.4736 12.1862H61.4882L62.3962 16.6765H62.471L63.513 12.1862H64.4727L65.5147 16.6765H65.5939L66.4975 12.1862H67.4978L66.1061 18.0708Z" fill="white"/>
<path d="M68.6729 12.1862H69.6358V13.121H69.7105C69.8373 12.7852 70.0512 12.5038 70.3223 12.3158C70.5935 12.1279 70.9084 12.0429 71.2231 12.0726C71.4697 12.051 71.7173 12.0942 71.9476 12.1989C72.1779 12.3036 72.385 12.467 72.5535 12.6772C72.722 12.8874 72.8476 13.139 72.921 13.4132C72.9944 13.6874 73.0137 13.9772 72.9775 14.2613V18.0707H71.9772V14.5529C71.9772 13.6072 71.6232 13.1369 70.8834 13.1369C70.716 13.1279 70.5488 13.161 70.3934 13.2339C70.238 13.3069 70.0981 13.418 69.9831 13.5597C69.8681 13.7013 69.7809 13.8701 69.7274 14.0546C69.6739 14.239 69.6554 14.4347 69.6732 14.6282V18.0708H68.6729L68.6729 12.1862Z" fill="white"/>
<path d="M74.5713 9.88892H75.5716V18.0708H74.5713V9.88892Z" fill="white"/>
<path d="M76.9622 15.1259C76.9304 14.7392 76.9685 14.349 77.0741 13.9803C77.1798 13.6117 77.3506 13.2728 77.5757 12.9853C77.8008 12.6978 78.0752 12.4681 78.3812 12.3109C78.6872 12.1537 79.0181 12.0725 79.3528 12.0725C79.6874 12.0725 80.0183 12.1537 80.3244 12.3109C80.6304 12.4681 80.9047 12.6978 81.1298 12.9853C81.3549 13.2728 81.5257 13.6117 81.6314 13.9803C81.737 14.349 81.7752 14.7392 81.7433 15.1259C81.7758 15.513 81.7381 15.9038 81.6327 16.273C81.5273 16.6422 81.3566 16.9817 81.1314 17.2698C80.9063 17.5578 80.6317 17.788 80.3254 17.9455C80.0191 18.103 79.6878 18.1844 79.3528 18.1844C79.0178 18.1844 78.6864 18.103 78.3801 17.9455C78.0738 17.788 77.7992 17.5578 77.5741 17.2698C77.349 16.9817 77.1782 16.6422 77.0728 16.273C76.9675 15.9038 76.9298 15.513 76.9622 15.1259V15.1259ZM80.7139 15.1259C80.7139 13.8503 80.2203 13.1044 79.3541 13.1044C78.4847 13.1044 77.9955 13.8503 77.9955 15.1259C77.9955 16.4117 78.4847 17.1519 79.3541 17.1519C80.2203 17.1519 80.7139 16.4066 80.7139 15.1259H80.7139Z" fill="white"/>
<path d="M82.7964 16.4065C82.7964 15.3473 83.4757 14.7366 84.6816 14.6498L86.0545 14.5579V14.05C86.0545 13.4285 85.7006 13.0775 85.0168 13.0775C84.4584 13.0775 84.0715 13.3155 83.9605 13.7316H82.9921C83.0943 12.7208 83.9132 12.0725 85.063 12.0725C86.3337 12.0725 87.0504 12.807 87.0504 14.05V18.0707H86.0875V17.2437H86.0084C85.8477 17.5404 85.6221 17.7822 85.3547 17.9445C85.0872 18.1069 84.7874 18.1839 84.4859 18.1677C84.2731 18.1934 84.0581 18.167 83.8546 18.0903C83.6511 18.0136 83.4638 17.8882 83.3046 17.7223C83.1454 17.5564 83.018 17.3536 82.9304 17.1269C82.8429 16.9003 82.7972 16.6549 82.7964 16.4065V16.4065ZM86.0545 15.9037V15.4117L84.8168 15.5036C84.1188 15.5578 83.8022 15.8335 83.8022 16.3523C83.8022 16.8819 84.1979 17.1901 84.7421 17.1901C84.9015 17.2089 85.0626 17.1902 85.2157 17.1352C85.3687 17.0802 85.5107 16.99 85.6332 16.8699C85.7556 16.7499 85.856 16.6025 85.9284 16.4365C86.0008 16.2705 86.0437 16.0893 86.0545 15.9037V15.9037Z" fill="white"/>
<path d="M88.3651 15.1259C88.3651 13.2665 89.1884 12.0885 90.4691 12.0885C90.7858 12.0716 91.1002 12.1596 91.3754 12.3425C91.6507 12.5253 91.8754 12.7953 92.0234 13.1209H92.0981V9.88892H93.0984V18.0708H92.1399V17.141H92.0608C91.9014 17.4645 91.6688 17.7311 91.3882 17.9121C91.1077 18.093 90.7898 18.1815 90.4691 18.1677C89.1797 18.1678 88.3651 16.9898 88.3651 15.1259ZM89.3984 15.1259C89.3984 16.374 89.9052 17.1251 90.7527 17.1251C91.5958 17.1251 92.1168 16.3632 92.1168 15.131C92.1168 13.9046 91.5903 13.1318 90.7527 13.1318C89.9106 13.1318 89.3984 13.888 89.3984 15.1259H89.3984Z" fill="white"/>
<path d="M97.237 15.126C97.2052 14.7393 97.2433 14.3491 97.3489 13.9805C97.4545 13.6119 97.6253 13.273 97.8504 12.9855C98.0754 12.698 98.3498 12.4683 98.6558 12.3111C98.9618 12.1539 99.2927 12.0728 99.6273 12.0728C99.9619 12.0728 100.293 12.1539 100.599 12.3111C100.905 12.4683 101.179 12.698 101.404 12.9855C101.629 13.273 101.8 13.6119 101.906 13.9805C102.011 14.3491 102.049 14.7393 102.018 15.126C102.05 15.5132 102.012 15.9039 101.907 16.2731C101.802 16.6423 101.631 16.9819 101.406 17.2699C101.181 17.558 100.906 17.7881 100.6 17.9457C100.294 18.1032 99.9623 18.1846 99.6273 18.1846C99.2923 18.1846 98.961 18.1032 98.6547 17.9457C98.3484 17.7881 98.0738 17.558 97.8487 17.2699C97.6236 16.9819 97.4529 16.6423 97.3475 16.2731C97.2422 15.9039 97.2045 15.5132 97.237 15.126V15.126ZM100.989 15.126C100.989 13.8505 100.495 13.1045 99.629 13.1045C98.7595 13.1045 98.2703 13.8505 98.2703 15.1261C98.2703 16.4119 98.7595 17.1521 99.629 17.1521C100.495 17.152 100.989 16.4067 100.989 15.126Z" fill="white"/>
<path d="M103.36 12.1862H104.323V13.121H104.397C104.524 12.7852 104.738 12.5038 105.009 12.3158C105.28 12.1279 105.595 12.0429 105.91 12.0726C106.157 12.051 106.404 12.0942 106.635 12.1989C106.865 12.3036 107.072 12.467 107.24 12.6772C107.409 12.8874 107.534 13.139 107.608 13.4132C107.681 13.6874 107.701 13.9772 107.664 14.2613V18.0707H106.664V14.5529C106.664 13.6072 106.31 13.1369 105.57 13.1369C105.403 13.1279 105.236 13.161 105.08 13.2339C104.925 13.3069 104.785 13.418 104.67 13.5597C104.555 13.7013 104.468 13.8701 104.414 14.0546C104.361 14.239 104.342 14.4347 104.36 14.6282V18.0708H103.36V12.1862Z" fill="white"/>
<path d="M113.317 10.7211V12.213H114.415V13.1912H113.317V16.2171C113.317 16.8335 113.535 17.1034 114.033 17.1034C114.161 17.103 114.288 17.094 114.415 17.0766V18.044C114.235 18.0813 114.053 18.1012 113.871 18.1033C112.758 18.1033 112.315 17.649 112.315 16.5145V13.1911H111.511V12.2129H112.315V10.7211H113.317Z" fill="white"/>
<path d="M115.781 9.88892H116.773V13.1318H116.852C116.985 12.7929 117.204 12.5098 117.481 12.3212C117.758 12.1326 118.078 12.0475 118.397 12.0776C118.643 12.0621 118.888 12.1097 119.116 12.2169C119.343 12.3241 119.548 12.4884 119.714 12.6979C119.881 12.9074 120.006 13.1571 120.08 13.4291C120.154 13.7011 120.176 13.9887 120.143 14.2715V18.0708H119.142V14.558C119.142 13.618 118.764 13.142 118.058 13.142C117.886 13.1256 117.713 13.1531 117.551 13.2224C117.389 13.2917 117.242 13.4013 117.121 13.5434C116.999 13.6855 116.906 13.8567 116.847 14.0451C116.789 14.2334 116.766 14.4344 116.781 14.6339V18.0707H115.781L115.781 9.88892Z" fill="white"/>
<path d="M125.976 16.4818C125.84 17.0196 125.545 17.4849 125.144 17.7961C124.742 18.1073 124.259 18.2447 123.779 18.1843C123.445 18.1945 123.113 18.1203 122.807 17.9667C122.5 17.8131 122.226 17.5838 122.003 17.2948C121.78 17.0058 121.614 16.664 121.517 16.2931C121.419 15.9222 121.392 15.5311 121.438 15.1469C121.393 14.7615 121.421 14.3696 121.518 13.9975C121.615 13.6255 121.781 13.2821 122.002 12.9906C122.224 12.6991 122.497 12.4662 122.803 12.3078C123.108 12.1494 123.44 12.0692 123.775 12.0725C125.185 12.0725 126.036 13.1911 126.036 15.039V15.4443H122.457V15.5094C122.441 15.7253 122.465 15.9427 122.526 16.1475C122.586 16.3524 122.684 16.5402 122.811 16.6989C122.938 16.8576 123.092 16.9838 123.264 17.0692C123.435 17.1547 123.62 17.1976 123.807 17.1952C124.046 17.2285 124.288 17.1785 124.503 17.0515C124.718 16.9244 124.895 16.7261 125.013 16.4818L125.976 16.4818ZM122.457 14.5854H125.017C125.03 14.3879 125.006 14.1895 124.949 14.003C124.892 13.8165 124.801 13.6459 124.684 13.5024C124.566 13.3588 124.424 13.2454 124.267 13.1693C124.109 13.0933 123.94 13.0564 123.769 13.0609C123.596 13.0584 123.425 13.0961 123.264 13.1718C123.104 13.2476 122.959 13.3598 122.836 13.5018C122.714 13.6439 122.617 13.813 122.552 13.9991C122.487 14.1851 122.455 14.3845 122.457 14.5854H122.457Z" fill="white"/>
</svg>
