<svg width="150" height="50" viewBox="0 0 150 50" fill="none" xmlns="http://www.w3.org/2000/svg">
<path d="M144.444 0H5.55556C2.48731 0 0 2.79822 0 6.25V43.75C0 47.2018 2.48731 50 5.55556 50H144.444C147.513 50 150 47.2018 150 43.75V6.25C150 2.79822 147.513 0 144.444 0Z" fill="black"/>
<path d="M52.6871 12.8041C52.7073 13.2628 52.6443 13.7213 52.5019 14.1517C52.3596 14.5821 52.1409 14.9755 51.8591 15.3077C51.5433 15.6762 51.1619 15.9655 50.7399 16.1567C50.3179 16.3479 49.8647 16.4367 49.4101 16.4174C48.9526 16.422 48.4988 16.3236 48.0755 16.1282C47.6523 15.9327 47.268 15.644 46.9453 15.279C46.6227 14.9141 46.3681 14.4802 46.1966 14.003C46.0251 13.5258 45.9401 13.0148 45.9466 12.5001C45.9401 11.9854 46.0252 11.4744 46.1967 10.9972C46.3682 10.52 46.6228 10.0861 46.9454 9.72113C47.2681 9.35614 47.6523 9.06737 48.0756 8.87179C48.4988 8.67622 48.9525 8.57777 49.4101 8.58224C49.8805 8.58064 50.3462 8.68764 50.7784 8.89661C51.1798 9.07966 51.5371 9.36679 51.8212 9.73461L51.2352 10.3944C51.0119 10.0987 50.7312 9.86466 50.4147 9.71037C50.0983 9.55608 49.7546 9.48564 49.4101 9.50449C49.0633 9.50247 48.7198 9.5792 48.4 9.73009C48.0802 9.88098 47.7908 10.1029 47.5491 10.3826C47.3074 10.6623 47.1183 10.994 46.9932 11.3579C46.8682 11.7217 46.8096 12.1102 46.8212 12.5001C46.8129 13.0841 46.959 13.6577 47.2409 14.1482C47.5228 14.6387 47.9278 15.0239 48.4046 15.2551C48.8813 15.4863 49.4084 15.553 49.9189 15.4468C50.4294 15.3405 50.9004 15.0661 51.2721 14.6584C51.6142 14.2437 51.8125 13.7045 51.8309 13.1391H49.4101V12.2382H52.6404C52.671 12.4249 52.6866 12.6143 52.6871 12.8041V12.8041Z" fill="white" stroke="white" stroke-width="0.2" stroke-miterlimit="10"/>
<path d="M57.8086 9.67169H54.7726V12.0496H57.5103V12.9506H54.7726V15.3284H57.8086V16.2501H53.9165V8.75006H57.8086V9.67169Z" fill="white" stroke="white" stroke-width="0.2" stroke-miterlimit="10"/>
<path d="M61.4209 16.2501H60.5637V9.67169H58.7017V8.75006H63.2829V9.67169H61.4209V16.2501Z" fill="white" stroke="white" stroke-width="0.2" stroke-miterlimit="10"/>
<path d="M66.5977 16.2501V8.75006H67.4538V16.2501H66.5977Z" fill="white" stroke="white" stroke-width="0.2" stroke-miterlimit="10"/>
<path d="M71.2537 16.2501H70.3964V9.67169H68.5345V8.75006H73.1157V9.67169H71.2537V16.2501Z" fill="white" stroke="white" stroke-width="0.2" stroke-miterlimit="10"/>
<path d="M81.7881 15.2809C81.1392 16.0087 80.2603 16.4174 79.344 16.4174C78.4277 16.4174 77.5488 16.0087 76.8999 15.2809C76.5789 14.9151 76.3265 14.4804 76.1578 14.0027C75.9891 13.525 75.9075 13.014 75.9179 12.5002C75.9075 11.9863 75.9891 11.4753 76.1578 10.9976C76.3265 10.5199 76.5789 10.0852 76.8999 9.7194C77.2206 9.35848 77.6014 9.07227 78.0206 8.87715C78.4398 8.68203 78.8891 8.58182 79.3427 8.58228C79.7964 8.58273 80.2455 8.68383 80.6643 8.87979C81.0832 9.07575 81.4636 9.36272 81.7838 9.72428C82.105 10.0891 82.3578 10.5228 82.5273 10.9996C82.6967 11.4765 82.7793 11.9867 82.7701 12.5002C82.7802 13.014 82.6984 13.5249 82.5298 14.0026C82.3611 14.4802 82.1089 14.9149 81.7881 15.2809V15.2809ZM77.5324 14.6529C78.013 15.1926 78.6643 15.4958 79.3434 15.4958C80.0225 15.4958 80.6738 15.1926 81.1544 14.6529C81.4009 14.369 81.5936 14.0319 81.721 13.6619C81.8484 13.2919 81.9077 12.8967 81.8955 12.5002C81.9077 12.1036 81.8484 11.7084 81.721 11.3384C81.5936 10.9684 81.4009 10.6313 81.1544 10.3474C80.6738 9.80766 80.0225 9.50451 79.3434 9.50451C78.6643 9.50451 78.013 9.80766 77.5324 10.3474C77.2863 10.6315 77.0939 10.9687 76.9667 11.3386C76.8395 11.7086 76.7802 12.1037 76.7924 12.5002C76.7802 12.8966 76.8395 13.2917 76.9667 13.6617C77.0939 14.0316 77.2863 14.3688 77.5324 14.6529V14.6529Z" fill="white" stroke="white" stroke-width="0.2" stroke-miterlimit="10"/>
<path d="M83.9724 16.2501V8.75006H85.0152L88.2552 14.5844H88.2921L88.2552 13.1391V8.75006H89.1124V16.2501H88.2183L84.8285 10.1331H84.7916L84.8285 11.5784V16.2501H83.9724Z" fill="white" stroke="white" stroke-width="0.2" stroke-miterlimit="10"/>
<path d="M75.7065 27.1896C74.7726 27.1936 73.8607 27.5088 73.0859 28.0954C72.3111 28.682 71.7082 29.5137 71.3533 30.4855C70.9984 31.4573 70.9073 32.5257 71.0917 33.5556C71.2761 34.5856 71.7276 35.531 72.3892 36.2725C73.0508 37.014 73.8929 37.5184 74.8091 37.7219C75.7253 37.9254 76.6746 37.8189 77.5371 37.4159C78.3996 37.0129 79.1366 36.3315 79.655 35.4576C80.1735 34.5837 80.4502 33.5567 80.4502 32.506C80.4594 31.8033 80.3428 31.1057 80.1074 30.4547C79.8721 29.8036 79.5227 29.2125 79.0801 28.7165C78.6376 28.2205 78.1108 27.8297 77.5313 27.5674C76.9517 27.3051 76.3311 27.1766 75.7065 27.1896V27.1896ZM75.7065 35.7281C75.1314 35.7743 74.5572 35.6245 74.0588 35.2984C73.5604 34.9723 73.1608 34.4849 72.912 33.8997C72.6632 33.3145 72.5768 32.6586 72.664 32.0174C72.7513 31.3762 73.0081 30.7794 73.401 30.3047C73.794 29.83 74.3048 29.4994 74.8672 29.3559C75.4295 29.2124 76.0172 29.2627 76.5537 29.5002C77.0903 29.7377 77.5508 30.1515 77.8754 30.6876C78.2 31.2237 78.3736 31.8573 78.3736 32.506C78.3911 32.9158 78.3355 33.3254 78.2101 33.7107C78.0847 34.0959 77.8921 34.4491 77.6436 34.7493C77.3951 35.0496 77.0957 35.2908 76.763 35.4589C76.4303 35.627 76.0711 35.7186 75.7065 35.7281V35.7281ZM65.3583 27.1896C64.4244 27.1936 63.5125 27.5088 62.7377 28.0953C61.9629 28.6819 61.3599 29.5136 61.005 30.4854C60.65 31.4572 60.559 32.5256 60.7434 33.5556C60.9277 34.5855 61.3792 35.531 62.0408 36.2725C62.7024 37.014 63.5445 37.5183 64.4607 37.7219C65.377 37.9254 66.3263 37.8189 67.1887 37.4159C68.0512 37.0129 68.7882 36.3315 69.3067 35.4576C69.8252 34.5838 70.1019 33.5567 70.1019 32.506C70.111 31.8033 69.9945 31.1057 69.7591 30.4547C69.5238 29.8037 69.1744 29.2126 68.7318 28.7166C68.2893 28.2206 67.7625 27.8298 67.183 27.5675C66.6034 27.3051 65.9829 27.1767 65.3583 27.1896V27.1896ZM65.3583 35.7281C64.7832 35.7743 64.209 35.6245 63.7106 35.2984C63.2121 34.9723 62.8125 34.4849 62.5638 33.8997C62.315 33.3145 62.2286 32.6586 62.3158 32.0174C62.403 31.3762 62.6598 30.7794 63.0528 30.3047C63.4457 29.83 63.9566 29.4994 64.5189 29.3559C65.0812 29.2124 65.6689 29.2627 66.2055 29.5002C66.742 29.7377 67.2026 30.1515 67.5272 30.6876C67.8518 31.2237 68.0254 31.8573 68.0254 32.506C68.0429 32.9158 67.9873 33.3254 67.8619 33.7107C67.7365 34.0959 67.5439 34.4491 67.2954 34.7493C67.0469 35.0496 66.7474 35.2909 66.4148 35.459C66.0821 35.6271 65.7229 35.7186 65.3583 35.7281ZM53.0485 28.8209V31.0763H57.846C57.7768 32.1341 57.392 33.1347 56.754 33.9158C56.2732 34.467 55.6951 34.8988 55.0568 35.1832C54.4186 35.4677 53.7345 35.5984 53.0485 35.567C51.6463 35.5456 50.3079 34.904 49.323 33.7809C48.3381 32.6578 47.7859 31.1436 47.7859 29.5659C47.7859 27.9882 48.3381 26.474 49.323 25.3509C50.3079 24.2278 51.6463 23.5861 53.0485 23.5648C54.3954 23.545 55.6949 24.1239 56.6645 25.1758L58.0786 23.5849C57.417 22.848 56.6313 22.2672 55.7676 21.8764C54.9038 21.4856 53.9794 21.2928 53.0485 21.3093C52.0757 21.2933 51.1098 21.4951 50.207 21.9029C49.3041 22.3107 48.4824 22.9163 47.7894 23.6846C47.0965 24.4529 46.5463 25.3685 46.1707 26.3781C45.7951 27.3878 45.6017 28.4714 45.6017 29.5659C45.6017 30.6604 45.7951 31.744 46.1707 32.7536C46.5463 33.7633 47.0965 34.6789 47.7894 35.4472C48.4824 36.2154 49.3041 36.8211 50.207 37.2289C51.1098 37.6366 52.0757 37.8384 53.0485 37.8225C53.999 37.8669 54.9471 37.6833 55.8297 37.284C56.7124 36.8848 57.5095 36.2789 58.1681 35.5066C59.3374 34.0707 59.9607 32.1769 59.9045 30.2305C59.9091 29.7578 59.8731 29.2858 59.797 28.8209H53.0485ZM103.391 30.5728C103.107 29.6098 102.566 28.7685 101.843 28.1633C101.119 27.558 100.247 27.2181 99.3455 27.1896C98.7384 27.1939 98.1382 27.3366 97.5815 27.6091C97.0247 27.8817 96.5228 28.2784 96.1062 28.7753C95.6896 29.2723 95.3669 29.8591 95.1576 30.5003C94.9483 31.1415 94.8567 31.8238 94.8884 32.506C94.8747 33.205 94.9864 33.8999 95.2168 34.5492C95.4472 35.1985 95.7916 35.789 96.2293 36.2852C96.6671 36.7815 97.1893 37.1734 97.7647 37.4375C98.3401 37.7016 98.9569 37.8326 99.5783 37.8225C100.357 37.8274 101.124 37.6146 101.812 37.2034C102.499 36.7921 103.085 36.1953 103.516 35.4664L101.905 34.2581C101.664 34.709 101.323 35.0816 100.915 35.3393C100.507 35.5971 100.046 35.731 99.5783 35.7281C99.0969 35.7488 98.621 35.6063 98.2124 35.3191C97.8038 35.0318 97.4814 34.6131 97.287 34.1171L103.606 31.177L103.391 30.5728ZM96.947 32.345C96.9247 31.9581 96.9713 31.57 97.084 31.2036C97.1966 30.8371 97.3731 30.4996 97.6031 30.2108C97.8332 29.922 98.1121 29.6878 98.4235 29.5217C98.735 29.3557 99.0728 29.2612 99.4171 29.2438C99.7756 29.2172 100.133 29.31 100.445 29.5106C100.757 29.7111 101.01 30.0105 101.171 30.3715L96.947 32.345ZM91.8094 37.5003H93.8859V21.8733H91.8094V37.5003ZM88.4083 28.3778H88.3368C88.0211 27.9919 87.6358 27.6863 87.2067 27.4814C86.7776 27.2765 86.3146 27.177 85.8485 27.1896C84.63 27.248 83.4786 27.8336 82.6347 28.8242C81.7908 29.8149 81.3197 31.134 81.3197 32.5061C81.3197 33.8782 81.7908 35.1973 82.6347 36.1879C83.4786 37.1785 84.63 37.7642 85.8485 37.8225C86.3164 37.8365 86.7814 37.7357 87.2111 37.527C87.6408 37.3184 88.0249 37.0069 88.3368 36.6143H88.4083V37.3795C88.4083 39.4135 87.4418 40.5009 85.8843 40.5009C85.3653 40.4869 84.8617 40.2994 84.4377 39.9623C84.0137 39.6252 83.6886 39.1537 83.5036 38.6079L81.6956 39.4538C82.0364 40.3871 82.6171 41.1847 83.3634 41.7444C84.1096 42.3041 84.9874 42.6004 85.8843 42.5953C88.3189 42.5953 90.3774 40.9843 90.3774 37.0573V27.5118H88.4083V28.3778ZM86.0276 35.7281C85.3099 35.6597 84.6412 35.2906 84.1539 34.6939C83.6666 34.0972 83.3962 33.3164 83.3962 32.5061C83.3962 31.6958 83.6666 30.915 84.1539 30.3183C84.6412 29.7216 85.3099 29.3525 86.0276 29.284C86.3847 29.3036 86.7346 29.4039 87.0565 29.5789C87.3784 29.7539 87.6656 30 87.9011 30.3025C88.1367 30.6051 88.3156 30.9579 88.4274 31.3399C88.5391 31.7219 88.5813 32.1254 88.5515 32.5261C88.5795 32.9244 88.5357 33.325 88.4228 33.7038C88.31 34.0826 88.1304 34.4319 87.8948 34.7308C87.6591 35.0298 87.3723 35.2722 87.0515 35.4435C86.7307 35.6149 86.3825 35.7117 86.0276 35.7281V35.7281ZM113.118 21.8735H108.15V37.5003H110.223V31.5798H113.118C113.704 31.6159 114.291 31.5172 114.842 31.2897C115.394 31.0621 115.898 30.7105 116.324 30.2563C116.751 29.8021 117.09 29.2548 117.323 28.6479C117.555 28.0411 117.675 27.3873 117.675 26.7266C117.675 26.0659 117.555 25.4122 117.323 24.8053C117.09 24.1985 116.751 23.6512 116.324 23.197C115.898 22.7428 115.394 22.3912 114.842 22.1636C114.291 21.9361 113.704 21.8373 113.118 21.8735V21.8735ZM113.171 29.405H110.223V24.0484H113.171C113.488 24.041 113.803 24.1048 114.098 24.2361C114.392 24.3674 114.66 24.5635 114.887 24.8129C115.113 25.0623 115.293 25.3601 115.416 25.6887C115.539 26.0173 115.602 26.3702 115.602 26.7267C115.602 27.0832 115.539 27.436 115.416 27.7647C115.293 28.0933 115.113 28.391 114.887 28.6405C114.66 28.8899 114.392 29.086 114.098 29.2173C113.803 29.3486 113.488 29.4124 113.171 29.405V29.405ZM125.984 27.1609C125.228 27.1112 124.474 27.3111 123.817 27.7361C123.16 28.1611 122.628 28.7926 122.285 29.5533L124.126 30.4178C124.308 30.0402 124.585 29.7307 124.921 29.5272C125.257 29.3237 125.639 29.2349 126.02 29.2718C126.546 29.214 127.071 29.3932 127.479 29.77C127.888 30.1469 128.147 30.6906 128.2 31.2821V31.443C127.534 31.0451 126.792 30.8379 126.038 30.8399C124.054 30.8399 122.035 32.0663 122.035 34.3581C122.054 34.8411 122.159 35.3149 122.345 35.7512C122.53 36.1876 122.791 36.5776 123.113 36.8983C123.434 37.2189 123.81 37.4636 124.217 37.6178C124.625 37.772 125.055 37.8325 125.484 37.7959C126.006 37.8304 126.526 37.7069 126.992 37.4382C127.457 37.1695 127.849 36.7654 128.129 36.268H128.2V37.4743H130.202V31.4833C130.202 28.7089 128.361 27.1609 125.984 27.1609V27.1609ZM125.734 35.7251C125.055 35.7251 124.108 35.3433 124.108 34.3983C124.108 33.1921 125.287 32.7296 126.306 32.7296C126.968 32.7098 127.622 32.8904 128.2 33.2524C128.124 33.9302 127.832 34.554 127.379 35.0086C126.926 35.4632 126.341 35.7177 125.734 35.7251V35.7251ZM137.493 27.5026L135.116 34.2776H135.044L132.578 27.5026H130.345L134.044 36.9716L131.935 42.2389H134.097L139.798 27.5026H137.493ZM118.818 37.5003H120.891V21.8735H118.818V37.5003Z" fill="white"/>
<path d="M11.5949 9.4226C11.2306 9.91269 11.0466 10.541 11.0807 11.1787V38.8238C11.0465 39.4616 11.2305 40.0899 11.5949 40.58L11.6771 40.6701L25.4427 25.184V24.8186L11.6771 9.33185L11.5949 9.4226Z" fill="url(#paint0_linear_14_534)"/>
<path d="M30.0308 30.3483L25.4426 25.184V24.8186L30.032 19.6556L30.1354 19.722L35.5718 23.1971C37.1247 24.1896 37.1247 25.8136 35.5718 26.8068L30.1354 30.2819L30.0308 30.3483Z" fill="url(#paint1_linear_14_534)"/>
<path d="M30.1355 30.2812L25.4427 25.0013L11.595 40.58C11.9114 40.8939 12.3154 41.0734 12.7372 41.0875C13.1589 41.1015 13.5716 40.9491 13.904 40.6567L30.1355 30.2812Z" fill="url(#paint2_linear_14_534)"/>
<path d="M30.1355 19.7214L13.904 9.34588C13.5716 9.0535 13.1589 8.90112 12.7372 8.91513C12.3154 8.92915 11.9114 9.10869 11.595 9.42263L25.4427 25.0014L30.1355 19.7214Z" fill="url(#paint3_linear_14_534)"/>
<path opacity="0.2" d="M30.0321 30.165L13.904 40.4742C13.5844 40.7478 13.1944 40.8971 12.7928 40.8996C12.3913 40.902 11.9999 40.7573 11.6777 40.4875L11.595 40.5807L11.6772 40.6708L11.6777 40.6702C11.9998 40.9401 12.3912 41.0848 12.7928 41.0824C13.1945 41.08 13.5845 40.9306 13.904 40.6568L30.1355 30.2813L30.0321 30.165Z" fill="black"/>
<path opacity="0.12" d="M11.5949 40.398C11.2306 39.9079 11.0466 39.2796 11.0807 38.6418V38.8245C11.0466 39.4622 11.2306 40.0905 11.5949 40.5806L11.6777 40.4875L11.5949 40.398Z" fill="black"/>
<path opacity="0.12" d="M35.5717 26.6235L30.0319 30.165L30.1353 30.2812L35.5717 26.8061C35.8915 26.65 36.1683 26.4002 36.3731 26.0829C36.578 25.7656 36.7035 25.3923 36.7365 25.0018C36.6678 25.3554 36.5267 25.686 36.3245 25.9675C36.1223 26.249 35.8646 26.4736 35.5717 26.6235V26.6235Z" fill="black"/>
<path opacity="0.25" d="M13.9038 9.52912L35.5718 23.3791C35.8647 23.5289 36.1226 23.7536 36.3248 24.0352C36.527 24.3168 36.668 24.6477 36.7366 25.0014C36.7037 24.6108 36.5784 24.2373 36.3735 23.9198C36.1686 23.6023 35.8917 23.3525 35.5718 23.1965L13.9038 9.34649C12.3509 8.35387 11.0806 9.17837 11.0806 11.1794V11.362C11.0806 9.36112 12.3509 8.53662 13.9038 9.52912Z" fill="white"/>
<defs>
<linearGradient id="paint0_linear_14_534" x1="24.222" y1="10.8872" x2="3.38863" y2="29.4058" gradientUnits="userSpaceOnUse">
<stop stop-color="#00A0FF"/>
<stop offset="0.00657" stop-color="#00A1FF"/>
<stop offset="0.2601" stop-color="#00BEFF"/>
<stop offset="0.5122" stop-color="#00D2FF"/>
<stop offset="0.7604" stop-color="#00DFFF"/>
<stop offset="1" stop-color="#00E3FF"/>
</linearGradient>
<linearGradient id="paint1_linear_14_534" x1="37.5937" y1="25.002" x2="10.7083" y2="25.002" gradientUnits="userSpaceOnUse">
<stop stop-color="#FFE000"/>
<stop offset="0.4087" stop-color="#FFBD00"/>
<stop offset="0.7754" stop-color="#FFA500"/>
<stop offset="1" stop-color="#FF9C00"/>
</linearGradient>
<linearGradient id="paint2_linear_14_534" x1="27.5856" y1="27.8702" x2="-0.666076" y2="52.9828" gradientUnits="userSpaceOnUse">
<stop stop-color="#FF3A44"/>
<stop offset="1" stop-color="#C31162"/>
</linearGradient>
<linearGradient id="paint3_linear_14_534" x1="8.10823" y1="0.220357" x2="20.7238" y2="11.4342" gradientUnits="userSpaceOnUse">
<stop stop-color="#32A071"/>
<stop offset="0.0685" stop-color="#2DA771"/>
<stop offset="0.4762" stop-color="#15CF74"/>
<stop offset="0.8009" stop-color="#06E775"/>
<stop offset="1" stop-color="#00F076"/>
</linearGradient>
</defs>
</svg>
