<svg width="188" height="32" viewBox="0 0 188 32" fill="none" xmlns="http://www.w3.org/2000/svg">
<path d="M77.8773 7.05961H75.5299C75.487 6.74978 75.3995 6.4746 75.2673 6.23406C75.1351 5.98966 74.9654 5.78221 74.7582 5.61094C74.5509 5.43929 74.3116 5.30843 74.04 5.21722C73.772 5.126 73.4809 5.08058 73.1664 5.08058C72.5983 5.08058 72.1035 5.22453 71.6819 5.51242C71.2603 5.79645 70.9334 6.21211 70.7011 6.75864C70.4689 7.30169 70.3528 7.96137 70.3528 8.73805C70.3528 9.53589 70.4689 10.2067 70.7011 10.7498C70.9369 11.2928 71.2656 11.7027 71.6873 11.9798C72.1088 12.257 72.5965 12.3951 73.1503 12.3951C73.4612 12.3951 73.7488 12.3532 74.0132 12.2697C74.2812 12.1858 74.5188 12.0637 74.726 11.9033C74.9332 11.7393 75.1047 11.5407 75.2405 11.3075C75.3798 11.0742 75.4763 10.8079 75.5299 10.5092L77.8773 10.52C77.8166 11.0338 77.6647 11.5295 77.4217 12.0072C77.1824 12.481 76.859 12.9055 76.4517 13.2811C76.048 13.6525 75.5656 13.9477 75.0047 14.1667C74.4473 14.3815 73.8167 14.4892 73.1128 14.4892C72.1339 14.4892 71.2585 14.2633 70.4867 13.8111C69.7186 13.3592 69.1112 12.7049 68.6646 11.8486C68.2215 10.9923 68 9.95502 68 8.73805C68 7.51684 68.2251 6.47807 68.6753 5.62172C69.1255 4.76537 69.7364 4.11262 70.5082 3.66463C71.2799 3.2124 72.1482 2.98648 73.1128 2.98648C73.7488 2.98648 74.3383 3.0777 74.8814 3.26013C75.4281 3.44217 75.9122 3.70812 76.3338 4.05797C76.7554 4.40436 77.0984 4.82888 77.3628 5.33191C77.6308 5.83494 77.8023 6.41071 77.8773 7.05961ZM81.7816 3.13966V14.336H79.4985V3.13966H81.7816ZM87.3299 14.5C86.4974 14.5 85.7775 14.3195 85.1701 13.9589C84.5662 13.5944 84.1 13.0879 83.7713 12.439C83.4426 11.7866 83.2782 11.0304 83.2782 10.1702C83.2782 9.30266 83.4426 8.54484 83.7713 7.89594C84.1 7.24358 84.5662 6.73708 85.1701 6.37607C85.7775 6.01159 86.4974 5.82955 87.3299 5.82955C88.1624 5.82955 88.8805 6.01159 89.4843 6.37607C90.0918 6.73708 90.5598 7.24358 90.8885 7.89594C91.2172 8.54484 91.3816 9.30266 91.3816 10.1702C91.3816 11.0304 91.2172 11.7866 90.8885 12.439C90.5598 13.0879 90.0918 13.5944 89.4843 13.9589C88.8805 14.3195 88.1624 14.5 87.3299 14.5ZM87.3406 12.6961C87.7193 12.6961 88.0356 12.5868 88.2892 12.3678C88.5429 12.1457 88.734 11.8432 88.8627 11.4603C88.9949 11.0777 89.061 10.642 89.061 10.154C89.061 9.6656 88.9949 9.22992 88.8627 8.84735C88.734 8.4644 88.5429 8.16189 88.2892 7.93982C88.0356 7.71736 87.7193 7.60613 87.3406 7.60613C86.9583 7.60613 86.6368 7.71736 86.3759 7.93982C86.1187 8.16189 85.924 8.4644 85.7918 8.84735C85.6631 9.22992 85.5988 9.6656 85.5988 10.154C85.5988 10.642 85.6631 11.0777 85.7918 11.4603C85.924 11.8432 86.1187 12.1457 86.3759 12.3678C86.6368 12.5868 86.9583 12.6961 87.3406 12.6961ZM98.1451 10.7606V5.93886H100.428V14.336H98.2362V12.8108H98.1505C97.9646 13.3027 97.6556 13.6983 97.2233 13.997C96.7945 14.296 96.2711 14.4453 95.653 14.4453C95.1027 14.4453 94.6186 14.318 94.2006 14.0628C93.7826 13.8076 93.4556 13.4451 93.2198 12.9747C92.9876 12.5044 92.8697 11.9414 92.8661 11.2855V5.93886H95.1492V10.8699C95.1528 11.3656 95.2832 11.7574 95.5404 12.0453C95.7977 12.3332 96.1425 12.4771 96.5748 12.4771C96.8499 12.4771 97.1071 12.4136 97.3465 12.2858C97.5859 12.1546 97.7789 11.9614 97.9254 11.7066C98.0754 11.4514 98.1486 11.1362 98.1451 10.7606ZM105.288 14.4727C104.663 14.4727 104.096 14.3087 103.589 13.9808C103.085 13.649 102.685 13.1626 102.388 12.521C102.095 11.8759 101.949 11.085 101.949 10.1482C101.949 9.18604 102.101 8.38627 102.404 7.74854C102.708 7.10695 103.112 6.62778 103.616 6.31064C104.123 5.98966 104.679 5.82955 105.282 5.82955C105.743 5.82955 106.128 5.9096 106.435 6.0701C106.746 6.22674 106.996 6.42341 107.185 6.6605C107.378 6.89373 107.524 7.12311 107.624 7.34942H107.694V3.13966H109.972V14.336H107.721V12.9913H107.624C107.517 13.2245 107.365 13.4558 107.169 13.6856C106.976 13.9115 106.724 14.099 106.413 14.2487C106.106 14.398 105.731 14.4727 105.288 14.4727ZM106.011 12.6195C106.379 12.6195 106.69 12.5175 106.944 12.3131C107.201 12.1057 107.398 11.8159 107.533 11.4441C107.673 11.0723 107.742 10.6366 107.742 10.1375C107.742 9.63827 107.675 9.20452 107.539 8.83619C107.403 8.46825 107.206 8.18383 106.949 7.98331C106.692 7.78279 106.379 7.68272 106.011 7.68272C105.636 7.68272 105.32 7.78664 105.063 7.99447C104.805 8.20192 104.611 8.49019 104.479 8.85813C104.346 9.22607 104.28 9.65251 104.28 10.1375C104.28 10.6259 104.346 11.0577 104.479 11.4329C104.614 11.8047 104.809 12.0965 105.063 12.3078C105.32 12.5156 105.636 12.6195 106.011 12.6195ZM115.385 14.336V3.13966H122.781V5.09136H117.705V7.75931H122.4V9.71101H117.705V12.3843H122.802V14.336H115.385ZM127.616 14.4727C126.991 14.4727 126.425 14.3087 125.917 13.9808C125.414 13.649 125.013 13.1626 124.717 12.521C124.424 11.8759 124.277 11.085 124.277 10.1482C124.277 9.18604 124.429 8.38627 124.733 7.74854C125.037 7.10695 125.44 6.62778 125.944 6.31064C126.452 5.98966 127.007 5.82955 127.611 5.82955C128.072 5.82955 128.456 5.9096 128.763 6.0701C129.074 6.22674 129.324 6.42341 129.513 6.6605C129.707 6.89373 129.853 7.12311 129.953 7.34942H130.023V3.13966H132.3V14.336H130.049V12.9913H129.953C129.846 13.2245 129.694 13.4558 129.497 13.6856C129.304 13.9115 129.053 14.099 128.742 14.2487C128.434 14.398 128.059 14.4727 127.616 14.4727ZM128.34 12.6195C128.708 12.6195 129.019 12.5175 129.272 12.3131C129.53 12.1057 129.726 11.8159 129.862 11.4441C130.001 11.0723 130.071 10.6366 130.071 10.1375C130.071 9.63827 130.003 9.20452 129.867 8.83619C129.731 8.46825 129.535 8.18383 129.278 7.98331C129.02 7.78279 128.708 7.68272 128.34 7.68272C127.965 7.68272 127.648 7.78664 127.391 7.99447C127.134 8.20192 126.939 8.49019 126.807 8.85813C126.675 9.22607 126.609 9.65251 126.609 10.1375C126.609 10.6259 126.675 11.0577 126.807 11.4329C126.943 11.8047 127.137 12.0965 127.391 12.3078C127.648 12.5156 127.965 12.6195 128.34 12.6195ZM139.456 10.7606V5.93886H141.739V14.336H139.548V12.8108H139.462C139.276 13.3027 138.967 13.6983 138.535 13.997C138.106 14.296 137.582 14.4453 136.964 14.4453C136.414 14.4453 135.93 14.318 135.512 14.0628C135.094 13.8076 134.767 13.4451 134.531 12.9747C134.299 12.5044 134.181 11.9414 134.178 11.2855V5.93886H136.461V10.8699C136.464 11.3656 136.594 11.7574 136.852 12.0453C137.109 12.3332 137.454 12.4771 137.886 12.4771C138.161 12.4771 138.418 12.4136 138.658 12.2858C138.897 12.1546 139.09 11.9614 139.237 11.7066C139.387 11.4514 139.46 11.1362 139.456 10.7606ZM147.285 14.5C146.442 14.5 145.716 14.318 145.109 13.9535C144.505 13.5852 144.041 13.0748 143.716 12.4225C143.394 11.7701 143.233 11.0196 143.233 10.1702C143.233 9.30997 143.396 8.55562 143.721 7.90672C144.05 7.25436 144.516 6.74594 145.12 6.38146C145.724 6.01352 146.442 5.82955 147.274 5.82955C147.993 5.82955 148.621 5.96233 149.161 6.22866C149.7 6.49461 150.127 6.86833 150.442 7.34942C150.756 7.83051 150.93 8.39512 150.962 9.04402H148.807C148.747 8.62489 148.586 8.28774 148.325 8.03257C148.067 7.77393 147.73 7.64462 147.312 7.64462C146.958 7.64462 146.649 7.74276 146.385 7.93982C146.124 8.13302 145.92 8.41514 145.774 8.78693C145.627 9.15872 145.554 9.60902 145.554 10.1375C145.554 10.6732 145.626 11.1289 145.769 11.5041C145.915 11.8794 146.12 12.1657 146.385 12.3624C146.649 12.5595 146.958 12.6576 147.312 12.6576C147.573 12.6576 147.807 12.603 148.014 12.4937C148.225 12.3843 148.398 12.2258 148.534 12.0179C148.673 11.8067 148.764 11.5534 148.807 11.2582H150.962C150.926 11.8998 150.755 12.4644 150.447 12.9528C150.143 13.4378 149.724 13.8168 149.188 14.0901C148.652 14.3634 148.018 14.5 147.285 14.5ZM154.771 14.4946C154.246 14.4946 153.777 14.4015 153.367 14.216C152.956 14.0262 152.63 13.7476 152.391 13.3793C152.155 13.0075 152.037 12.5448 152.037 11.9906C152.037 11.5242 152.121 11.1324 152.289 10.8152C152.457 10.4981 152.686 10.2433 152.975 10.0501C153.265 9.85688 153.593 9.71101 153.962 9.61248C154.333 9.51434 154.723 9.44506 155.13 9.40504C155.608 9.35385 155.994 9.3065 156.288 9.26263C156.58 9.21529 156.793 9.14601 156.925 9.0548C157.057 8.96397 157.124 8.82888 157.124 8.6503V8.61758C157.124 8.27119 157.016 8.00332 156.802 7.81396C156.591 7.62461 156.291 7.52954 155.902 7.52954C155.491 7.52954 155.164 7.62268 154.921 7.80857C154.678 7.99062 154.517 8.22039 154.438 8.4975L152.327 8.32238C152.434 7.81204 152.645 7.37097 152.959 6.99957C153.274 6.62393 153.679 6.33604 154.176 6.13552C154.676 5.93154 155.255 5.82955 155.912 5.82955C156.369 5.82955 156.807 5.88421 157.225 5.99351C157.647 6.10281 158.02 6.27216 158.345 6.50193C158.674 6.73131 158.933 7.0269 159.123 7.38752C159.312 7.74469 159.407 8.17305 159.407 8.67223V14.336H157.241V13.1714H157.177C157.045 13.4339 156.868 13.6656 156.646 13.8657C156.425 14.0628 156.159 14.2175 155.848 14.3307C155.537 14.44 155.178 14.4946 154.771 14.4946ZM155.425 12.8874C155.761 12.8874 156.057 12.82 156.314 12.6849C156.571 12.5464 156.774 12.3605 156.92 12.1273C157.066 11.894 157.14 11.63 157.14 11.3348V10.4434C157.068 10.4908 156.97 10.5346 156.845 10.5747C156.723 10.6112 156.586 10.6459 156.432 10.6786C156.279 10.7078 156.125 10.7352 155.971 10.7606C155.818 10.7825 155.678 10.8025 155.553 10.8206C155.285 10.861 155.051 10.9245 154.851 11.0123C154.651 11.0996 154.496 11.2182 154.385 11.3675C154.274 11.5134 154.219 11.6954 154.219 11.914C154.219 12.2312 154.331 12.4736 154.557 12.6414C154.785 12.8054 155.075 12.8874 155.425 12.8874ZM165.556 5.93886V7.68811H160.599V5.93886H165.556ZM161.725 3.92712H164.008V11.7555C164.008 11.9706 164.04 12.1384 164.104 12.2585C164.168 12.3751 164.258 12.4571 164.372 12.5044C164.49 12.5522 164.626 12.5756 164.78 12.5756C164.887 12.5756 164.994 12.5664 165.101 12.5483C165.208 12.5264 165.29 12.5102 165.347 12.499L165.707 14.2321C165.592 14.2687 165.431 14.3106 165.224 14.358C165.017 14.4088 164.765 14.44 164.469 14.4507C163.919 14.4727 163.436 14.398 163.022 14.2267C162.611 14.0555 162.291 13.7895 162.062 13.4285C161.834 13.0679 161.721 12.6122 161.725 12.0618V3.92712ZM167.044 14.336V5.93886H169.327V14.336H167.044ZM168.191 4.8562C167.851 4.8562 167.56 4.74151 167.317 4.51174C167.078 4.27851 166.958 3.99986 166.958 3.67541C166.958 3.35481 167.078 3.07963 167.317 2.84986C167.56 2.61662 167.851 2.5 168.191 2.5C168.53 2.5 168.82 2.61662 169.059 2.84986C169.302 3.07963 169.423 3.35481 169.423 3.67541C169.423 3.99986 169.302 4.27851 169.059 4.51174C168.82 4.74151 168.53 4.8562 168.191 4.8562ZM174.875 14.5C174.043 14.5 173.323 14.3195 172.715 13.9589C172.112 13.5944 171.645 13.0879 171.317 12.439C170.988 11.7866 170.823 11.0304 170.823 10.1702C170.823 9.30266 170.988 8.54484 171.317 7.89594C171.645 7.24358 172.112 6.73708 172.715 6.37607C173.323 6.01159 174.043 5.82955 174.875 5.82955C175.708 5.82955 176.426 6.01159 177.03 6.37607C177.637 6.73708 178.105 7.24358 178.434 7.89594C178.763 8.54484 178.927 9.30266 178.927 10.1702C178.927 11.0304 178.763 11.7866 178.434 12.439C178.105 13.0879 177.637 13.5944 177.03 13.9589C176.426 14.3195 175.708 14.5 174.875 14.5ZM174.886 12.6961C175.265 12.6961 175.581 12.5868 175.834 12.3678C176.088 12.1457 176.279 11.8432 176.408 11.4603C176.54 11.0777 176.606 10.642 176.606 10.154C176.606 9.6656 176.54 9.22992 176.408 8.84735C176.279 8.4644 176.088 8.16189 175.834 7.93982C175.581 7.71736 175.265 7.60613 174.886 7.60613C174.504 7.60613 174.182 7.71736 173.921 7.93982C173.664 8.16189 173.469 8.4644 173.337 8.84735C173.208 9.22992 173.144 9.6656 173.144 10.154C173.144 10.642 173.208 11.0777 173.337 11.4603C173.469 11.8432 173.664 12.1457 173.921 12.3678C174.182 12.5868 174.504 12.6961 174.886 12.6961ZM182.694 9.48124V14.336H180.411V5.93886H182.587V7.42024H182.684C182.866 6.93183 183.171 6.5458 183.6 6.26138C184.029 5.9735 184.549 5.82955 185.16 5.82955C185.731 5.82955 186.23 5.95694 186.655 6.21212C187.08 6.46729 187.411 6.83176 187.646 7.30555C187.882 7.77586 188 8.33701 188 8.98937V14.336H185.717V9.40504C185.721 8.89084 185.592 8.49019 185.331 8.20192C185.07 7.91057 184.711 7.7647 184.254 7.7647C183.947 7.7647 183.675 7.83205 183.439 7.96714C183.207 8.10185 183.025 8.29852 182.893 8.55754C182.764 8.81271 182.698 9.12061 182.694 9.48124Z" fill="#0F32B1"/>
<path d="M70.7463 28.4961C70.1767 28.4961 69.6871 28.3914 69.2775 28.1819C68.868 27.9725 68.552 27.6901 68.3296 27.3348C68.1098 26.9768 68 26.573 68 26.1242C68 25.7852 68.0678 25.485 68.2034 25.2232C68.3418 24.9614 68.5316 24.7189 68.773 24.4959C69.0171 24.2729 69.2992 24.051 69.6193 23.8307L71.0962 22.8102C71.3132 22.6667 71.4773 22.5154 71.5885 22.3556C71.7024 22.1958 71.7593 22.0084 71.7593 21.7935C71.7593 21.6116 71.6834 21.4394 71.5315 21.2769C71.3823 21.1144 71.1762 21.0333 70.9131 21.0333C70.7368 21.0333 70.5808 21.076 70.4452 21.1613C70.3123 21.2439 70.2079 21.3525 70.1319 21.4875C70.0587 21.6225 70.0221 21.766 70.0221 21.9173C70.0221 22.1019 70.0722 22.2893 70.1726 22.4793C70.2757 22.6694 70.4086 22.8664 70.5713 23.0704C70.7368 23.2741 70.9131 23.4905 71.1002 23.719L75.0101 28.372H73.4153L70.1685 24.5952C69.9271 24.3086 69.6939 24.0262 69.4687 23.7481C69.2463 23.47 69.0632 23.1806 68.9195 22.8804C68.7784 22.5771 68.7079 22.2493 68.7079 21.8967C68.7079 21.4972 68.7988 21.1407 68.9805 20.8266C69.1622 20.5097 69.4159 20.2602 69.7413 20.0787C70.0695 19.8968 70.4533 19.8056 70.8927 19.8056C71.3321 19.8056 71.7091 19.8941 72.0238 20.0702C72.3384 20.2467 72.5812 20.481 72.7521 20.7726C72.9229 21.0647 73.0084 21.3832 73.0084 21.7272C73.0084 22.1267 72.9107 22.4847 72.7155 22.8016C72.5202 23.1158 72.2489 23.4009 71.9017 23.6569L70.2174 24.909C69.9407 25.113 69.7427 25.3198 69.6233 25.5288C69.504 25.7356 69.4443 25.9121 69.4443 26.0579C69.4443 26.2809 69.4999 26.4834 69.6111 26.6653C69.7224 26.8472 69.8783 26.9931 70.079 27.1032C70.2824 27.2107 70.5198 27.2646 70.791 27.2646C71.0894 27.2646 71.3837 27.1971 71.6739 27.0621C71.9641 26.9244 72.2286 26.7285 72.4673 26.4753C72.7059 26.222 72.8958 25.9187 73.0369 25.5661C73.1779 25.2108 73.2484 24.8171 73.2484 24.3842H74.5138C74.5138 24.9187 74.4554 25.3845 74.3388 25.781C74.2222 26.175 74.0716 26.5082 73.8872 26.7809C73.7027 27.0509 73.5074 27.2673 73.3013 27.4298C73.2362 27.4768 73.1739 27.5233 73.1142 27.5703C73.0545 27.6172 72.9921 27.6641 72.927 27.7107C72.6341 27.9806 72.291 28.1792 71.8977 28.3061C71.5071 28.4325 71.1233 28.4961 70.7463 28.4961ZM84.9162 19.9092L87.0847 26.5703H87.1701L89.3346 19.9092H90.9946L88.0571 28.372H86.1937L83.2603 19.9092H84.9162ZM94.5475 28.372V22.0247H96.0203V28.372H94.5475ZM95.288 21.1241C95.0547 21.1241 94.854 21.0457 94.6858 20.8886C94.5177 20.7288 94.4336 20.5372 94.4336 20.3142C94.4336 20.088 94.5177 19.8968 94.6858 19.7397C94.854 19.5799 95.0547 19.5 95.288 19.5C95.524 19.5 95.7247 19.5799 95.8901 19.7397C96.0583 19.8968 96.1424 20.088 96.1424 20.3142C96.1424 20.5372 96.0583 20.7288 95.8901 20.8886C95.7247 21.0457 95.524 21.1241 95.288 21.1241ZM104.995 23.7027L103.652 23.8513C103.614 23.7136 103.548 23.584 103.453 23.463C103.36 23.3416 103.236 23.2438 103.078 23.1694C102.921 23.0953 102.728 23.058 102.501 23.058C102.194 23.058 101.936 23.1255 101.728 23.2605C101.521 23.3955 101.42 23.5704 101.422 23.7853C101.42 23.9699 101.486 24.1201 101.622 24.2356C101.76 24.3512 101.988 24.4463 102.305 24.5207L103.371 24.7523C103.963 24.8815 104.402 25.087 104.689 25.3679C104.98 25.6487 105.126 26.0168 105.129 26.471C105.126 26.8705 105.011 27.2231 104.783 27.5291C104.558 27.8321 104.245 28.0691 103.843 28.2397C103.442 28.4104 102.981 28.4961 102.46 28.4961C101.695 28.4961 101.079 28.3336 100.613 28.0082C100.146 27.6804 99.8682 27.2247 99.7787 26.6405L101.215 26.5001C101.28 26.7867 101.418 27.0028 101.63 27.149C101.841 27.2949 102.117 27.3678 102.456 27.3678C102.806 27.3678 103.086 27.2949 103.298 27.149C103.512 27.0028 103.619 26.8224 103.619 26.6075C103.619 26.4256 103.55 26.2755 103.412 26.1572C103.276 26.0385 103.065 25.9477 102.777 25.8845L101.711 25.6572C101.112 25.5304 100.668 25.3171 100.381 25.0164C100.093 24.7135 99.9509 24.3307 99.9537 23.8679C99.9509 23.4766 100.055 23.1379 100.267 22.8513C100.481 22.5619 100.778 22.3389 101.158 22.1818C101.54 22.022 101.981 21.9421 102.48 21.9421C103.213 21.9421 103.789 22.1007 104.209 22.4173C104.633 22.7342 104.894 23.1628 104.995 23.7027ZM110.662 28.5C110.266 28.5 109.91 28.4286 109.592 28.2851C109.278 28.1393 109.028 27.9244 108.843 27.6405C108.662 27.3569 108.571 27.007 108.571 26.5909C108.571 26.2328 108.636 25.9369 108.766 25.7026C108.896 25.4683 109.074 25.281 109.299 25.1406C109.524 25.0002 109.778 24.8939 110.06 24.8225C110.345 24.748 110.639 24.6941 110.943 24.6612C111.309 24.6228 111.606 24.5882 111.834 24.558C112.062 24.525 112.227 24.4753 112.33 24.409C112.436 24.3404 112.489 24.2341 112.489 24.091V24.0661C112.489 23.7551 112.398 23.5138 112.216 23.3431C112.035 23.1721 111.773 23.0867 111.431 23.0867C111.07 23.0867 110.784 23.1666 110.573 23.3264C110.364 23.4863 110.223 23.6752 110.149 23.8928L108.774 23.6942C108.883 23.3086 109.062 22.9863 109.311 22.7272C109.561 22.4657 109.866 22.2699 110.227 22.1407C110.588 22.0084 110.986 21.9421 111.423 21.9421C111.724 21.9421 112.024 21.9782 112.322 22.0495C112.62 22.1213 112.893 22.2396 113.14 22.4048C113.387 22.5678 113.585 22.7892 113.734 23.0704C113.886 23.3513 113.962 23.7027 113.962 24.1239V28.372H112.546V27.5001H112.497C112.408 27.6765 112.281 27.8418 112.119 27.9962C111.959 28.1474 111.757 28.27 111.513 28.3639C111.271 28.4546 110.988 28.5 110.662 28.5ZM111.045 27.4008C111.34 27.4008 111.597 27.3418 111.813 27.2231C112.031 27.1021 112.197 26.9423 112.314 26.7441C112.433 26.5455 112.493 26.3294 112.493 26.0951V25.3473C112.447 25.3857 112.368 25.4214 112.257 25.4548C112.148 25.4877 112.027 25.5164 111.891 25.5412C111.755 25.5661 111.621 25.5882 111.488 25.6076C111.355 25.627 111.24 25.6433 111.142 25.6572C110.922 25.6875 110.726 25.7371 110.552 25.8058C110.379 25.8748 110.242 25.971 110.141 26.0951C110.041 26.2162 109.991 26.3733 109.991 26.566C109.991 26.8418 110.09 27.0497 110.288 27.1901C110.486 27.3305 110.738 27.4008 111.045 27.4008ZM127.919 22.2357C127.881 21.8746 127.721 21.5938 127.439 21.3925C127.16 21.1915 126.796 21.0911 126.349 21.0911C126.034 21.0911 125.764 21.1392 125.539 21.2358C125.314 21.332 125.142 21.4627 125.022 21.6283C124.903 21.7935 124.842 21.9821 124.839 22.1942C124.839 22.3707 124.879 22.5235 124.957 22.6531C125.039 22.7822 125.148 22.8928 125.287 22.9836C125.425 23.0716 125.578 23.1461 125.746 23.2066C125.915 23.2671 126.084 23.3183 126.255 23.3594L127.036 23.558C127.351 23.6325 127.653 23.7329 127.943 23.8594C128.236 23.9862 128.498 24.146 128.729 24.3388C128.962 24.5316 129.146 24.7647 129.282 25.0374C129.418 25.3101 129.486 25.6297 129.486 25.9958C129.486 26.4919 129.361 26.9283 129.111 27.3057C128.861 27.6804 128.501 27.974 128.029 28.1862C127.56 28.3953 126.991 28.5 126.324 28.5C125.676 28.5 125.113 28.398 124.636 28.1944C124.161 27.9903 123.789 27.6928 123.521 27.3018C123.255 26.9105 123.111 26.4341 123.09 25.8721H124.575C124.596 26.1669 124.686 26.412 124.843 26.6075C125 26.803 125.205 26.9493 125.458 27.0454C125.713 27.142 125.997 27.1901 126.312 27.1901C126.64 27.1901 126.928 27.1405 127.175 27.0416C127.424 26.9396 127.619 26.7991 127.76 26.6199C127.901 26.438 127.973 26.2259 127.976 25.9834C127.973 25.7631 127.909 25.5812 127.785 25.4381C127.66 25.2922 127.485 25.1708 127.26 25.0746C127.038 24.9753 126.777 24.8873 126.479 24.8101L125.531 24.5622C124.845 24.383 124.302 24.1115 123.903 23.7481C123.507 23.3815 123.309 22.8955 123.309 22.2893C123.309 21.7908 123.442 21.3541 123.708 20.9794C123.977 20.6047 124.341 20.3142 124.803 20.1074C125.264 19.898 125.786 19.7936 126.369 19.7936C126.96 19.7936 127.478 19.898 127.923 20.1074C128.371 20.3142 128.722 20.602 128.977 20.9712C129.232 21.3374 129.363 21.759 129.372 22.2357H127.919ZM136.053 28.4961C135.427 28.4961 134.886 28.3639 134.43 28.0993C133.977 27.8321 133.628 27.4547 133.384 26.9671C133.14 26.4768 133.018 25.8997 133.018 25.2356C133.018 24.5828 133.14 24.0099 133.384 23.5165C133.631 23.0208 133.976 22.6352 134.418 22.3595C134.86 22.0813 135.379 21.9421 135.976 21.9421C136.361 21.9421 136.724 22.0057 137.066 22.1322C137.411 22.2563 137.714 22.4491 137.977 22.7109C138.243 22.9727 138.452 23.3059 138.604 23.7108C138.756 24.1131 138.832 24.5925 138.832 25.1487V25.6076H133.71V24.5991H137.42C137.418 24.3128 137.356 24.058 137.237 23.835C137.118 23.6088 136.951 23.4312 136.737 23.3016C136.525 23.1721 136.278 23.1077 135.996 23.1077C135.695 23.1077 135.431 23.1818 135.203 23.3307C134.975 23.4766 134.797 23.6693 134.67 23.909C134.545 24.146 134.482 24.4063 134.478 24.6902V25.5703C134.478 25.9396 134.545 26.2561 134.678 26.5206C134.811 26.7825 134.997 26.9834 135.235 27.1242C135.474 27.2619 135.754 27.3305 136.074 27.3305C136.288 27.3305 136.482 27.3003 136.655 27.2398C136.829 27.1766 136.98 27.0842 137.107 26.9628C137.234 26.8418 137.331 26.6917 137.396 26.5125L138.771 26.6696C138.684 27.0385 138.519 27.3608 138.275 27.6366C138.033 27.9093 137.724 28.1214 137.347 28.2727C136.97 28.4216 136.539 28.4961 136.053 28.4961ZM142.598 28.372V22.0247H144.027V23.0829H144.092C144.206 22.7163 144.401 22.4339 144.678 22.2357C144.957 22.0344 145.276 21.934 145.634 21.934C145.715 21.934 145.806 21.9382 145.906 21.9464C146.009 21.9518 146.095 21.9615 146.163 21.9755V23.3513C146.1 23.3292 146.001 23.3102 145.866 23.2935C145.733 23.2741 145.604 23.2644 145.479 23.2644C145.211 23.2644 144.969 23.3237 144.755 23.442C144.543 23.558 144.377 23.719 144.254 23.9257C144.133 24.1325 144.071 24.3706 144.071 24.6406V28.372H142.598ZM155.434 22.0247L153.208 28.372H151.581L149.355 22.0247H150.926L152.362 26.7398H152.427L153.868 22.0247H155.434ZM158.974 28.372V22.0247H160.446V28.372H158.974ZM159.714 21.1241C159.481 21.1241 159.28 21.0457 159.112 20.8886C158.944 20.7288 158.86 20.5372 158.86 20.3142C158.86 20.088 158.944 19.8968 159.112 19.7397C159.28 19.5799 159.481 19.5 159.714 19.5C159.95 19.5 160.151 19.5799 160.316 19.7397C160.484 19.8968 160.568 20.088 160.568 20.3142C160.568 20.5372 160.484 20.7288 160.316 20.8886C160.151 21.0457 159.95 21.1241 159.714 21.1241ZM167.207 28.4961C166.583 28.4961 166.048 28.3569 165.6 28.0788C165.155 27.8003 164.812 27.4163 164.571 26.9256C164.332 26.4326 164.213 25.8651 164.213 25.2232C164.213 24.5785 164.335 24.0099 164.579 23.5165C164.823 23.0208 165.168 22.6352 165.613 22.3595C166.06 22.0813 166.589 21.9421 167.199 21.9421C167.707 21.9421 168.155 22.0371 168.546 22.2272C168.939 22.4145 169.252 22.6806 169.486 23.0247C169.719 23.3664 169.852 23.7659 169.885 24.2232H168.477C168.42 23.9176 168.284 23.6627 168.07 23.4587C167.859 23.252 167.575 23.1488 167.22 23.1488C166.919 23.1488 166.654 23.2314 166.426 23.3967C166.198 23.5592 166.021 23.7935 165.893 24.0991C165.768 24.4051 165.706 24.7713 165.706 25.1984C165.706 25.6308 165.768 26.0028 165.893 26.3143C166.018 26.6227 166.193 26.8608 166.418 27.0292C166.646 27.1944 166.913 27.277 167.22 27.277C167.437 27.277 167.631 27.2355 167.801 27.1529C167.975 27.0676 168.12 26.945 168.237 26.7852C168.353 26.6254 168.433 26.4311 168.477 26.2026H169.885C169.849 26.6518 169.719 27.0497 169.494 27.3969C169.269 27.7413 168.962 28.0113 168.575 28.2068C168.187 28.3995 167.731 28.4961 167.207 28.4961ZM176.381 28.4961C175.754 28.4961 175.213 28.3639 174.758 28.0993C174.305 27.8321 173.956 27.4547 173.712 26.9671C173.468 26.4768 173.346 25.8997 173.346 25.2356C173.346 24.5828 173.468 24.0099 173.712 23.5165C173.959 23.0208 174.304 22.6352 174.745 22.3595C175.188 22.0813 175.707 21.9421 176.304 21.9421C176.689 21.9421 177.052 22.0057 177.394 22.1322C177.739 22.2563 178.042 22.4491 178.305 22.7109C178.571 22.9727 178.78 23.3059 178.932 23.7108C179.084 24.1131 179.16 24.5925 179.16 25.1487V25.6076H174.038V24.5991H177.748C177.745 24.3128 177.684 24.058 177.565 23.835C177.446 23.6088 177.279 23.4312 177.065 23.3016C176.853 23.1721 176.606 23.1077 176.324 23.1077C176.023 23.1077 175.759 23.1818 175.531 23.3307C175.303 23.4766 175.125 23.6693 174.998 23.909C174.873 24.146 174.809 24.4063 174.806 24.6902V25.5703C174.806 25.9396 174.873 26.2561 175.006 26.5206C175.139 26.7825 175.325 26.9834 175.563 27.1242C175.802 27.2619 176.081 27.3305 176.401 27.3305C176.616 27.3305 176.81 27.3003 176.983 27.2398C177.157 27.1766 177.307 27.0842 177.435 26.9628C177.562 26.8418 177.658 26.6917 177.724 26.5125L179.099 26.6696C179.012 27.0385 178.847 27.3608 178.603 27.6366C178.361 27.9093 178.052 28.1214 177.675 28.2727C177.298 28.4216 176.866 28.4961 176.381 28.4961ZM187.866 23.7027L186.523 23.8513C186.485 23.7136 186.419 23.584 186.323 23.463C186.231 23.3416 186.107 23.2438 185.949 23.1694C185.792 23.0953 185.599 23.058 185.372 23.058C185.065 23.058 184.807 23.1255 184.598 23.2605C184.393 23.3955 184.291 23.5704 184.293 23.7853C184.291 23.9699 184.357 24.1201 184.493 24.2356C184.631 24.3512 184.859 24.4463 185.176 24.5207L186.242 24.7523C186.834 24.8815 187.273 25.087 187.56 25.3679C187.851 25.6487 187.997 26.0168 188 26.471C187.997 26.8705 187.882 27.2231 187.654 27.5291C187.429 27.8321 187.116 28.0691 186.714 28.2397C186.313 28.4104 185.852 28.4961 185.331 28.4961C184.566 28.4961 183.95 28.3336 183.484 28.0082C183.017 27.6804 182.739 27.2247 182.65 26.6405L184.086 26.5001C184.151 26.7867 184.289 27.0028 184.501 27.149C184.713 27.2949 184.988 27.3678 185.327 27.3678C185.677 27.3678 185.958 27.2949 186.169 27.149C186.383 27.0028 186.49 26.8224 186.49 26.6075C186.49 26.4256 186.421 26.2755 186.283 26.1572C186.147 26.0385 185.936 25.9477 185.648 25.8845L184.582 25.6572C183.983 25.5304 183.539 25.3171 183.252 25.0164C182.964 24.7135 182.822 24.3307 182.825 23.8679C182.822 23.4766 182.926 23.1379 183.138 22.8513C183.352 22.5619 183.649 22.3389 184.029 22.1818C184.411 22.022 184.852 21.9421 185.351 21.9421C186.084 21.9421 186.66 22.1007 187.08 22.4173C187.504 22.7342 187.765 23.1628 187.866 23.7027Z" fill="#2C2F3A"/>
<path d="M40.8197 13.0787C39.5565 7.16212 33.9321 2.7998 27.1705 2.7998C21.8021 2.7998 17.1282 5.53315 14.7969 9.6524C9.2056 10.2028 4.97461 14.6081 4.97461 19.9313C4.97461 25.6329 9.91466 30.2102 16.0726 30.2102H40.1819C45.3088 30.2102 49.494 26.4506 49.494 21.7035C49.494 17.1629 45.64 13.3969 40.8197 13.0787ZM40.1819 26.7839H16.0726C11.9766 26.7839 8.67393 23.7237 8.67393 19.9313C8.67393 16.1388 11.9766 13.0787 16.0726 13.0787C20.1685 13.0787 23.4712 16.1388 23.4712 19.9313H27.1705C27.1705 15.1842 23.7155 11.2108 19.0065 10.0068C20.8734 7.69351 23.8268 6.2261 27.1705 6.2261C32.8083 6.2261 37.3755 10.458 37.3755 15.678V16.505H40.1819C43.2562 16.505 45.7947 18.857 45.7947 21.7035C45.7947 24.55 43.2562 26.7839 40.1819 26.7839Z" fill="#0F32B1"/>
<path d="M22.1959 12.1335C22.1956 12.1335 22.1964 12.1335 22.1959 12.1335C22.0385 12.1335 21.9251 12.1484 21.8132 12.2517C21.7002 12.3561 21.6857 12.4581 21.6857 12.6061V20.8765C21.6857 21.1797 21.867 21.4664 22.1959 21.4672C23.5822 21.4703 25.9512 21.6868 27.5536 23.2395V14.6147C27.5536 14.5119 27.4796 14.4583 27.426 14.3784C26.1109 12.4174 23.5853 12.1365 22.1959 12.1335Z" fill="#0F32B1"/>
<path d="M34.3151 20.8765V12.6061C34.3151 12.4581 34.1736 12.3561 34.0611 12.2517C33.9497 12.1484 33.8365 12.1335 33.6799 12.1335C33.6794 12.1335 33.6804 12.1335 33.6799 12.1335C32.2961 12.1366 29.7809 12.4174 28.471 14.3784C28.4176 14.4583 28.471 14.5119 28.471 14.6147V23.2395C30.0668 21.6868 32.2992 21.4705 33.6799 21.4672C34.0073 21.4666 34.3151 21.1797 34.3151 20.8765Z" fill="#0F32B1"/>
<path d="M35.718 14.0239H35.3353V20.8679C35.3353 21.6411 34.6419 22.2819 33.8045 22.2839C32.6285 22.2864 30.713 22.4981 29.3398 23.6998C31.7147 23.1621 34.1637 23.5172 35.5904 23.8178C35.7686 23.8554 35.958 23.8052 36.1007 23.6998C36.2428 23.595 36.3558 23.3962 36.3558 23.2279V14.4959C36.3558 14.1923 36.0463 14.0239 35.718 14.0239Z" fill="#0F32B1"/>
<path d="M20.6655 20.8678V14.0239H20.1553C19.8269 14.0239 19.6451 14.1923 19.6451 14.4959V23.2278C19.6451 23.3963 19.6305 23.5949 19.7726 23.6998C19.9153 23.805 20.1043 23.8555 20.2829 23.8178C21.7095 23.5172 24.286 23.1621 26.6606 23.6998C25.2876 22.498 23.2445 22.2864 22.0686 22.2838C21.2313 22.2819 20.6655 21.6411 20.6655 20.8678Z" fill="#0F32B1"/>
<path fill-rule="evenodd" clip-rule="evenodd" d="M44.2649 6.8169L44.7751 8.35282H46.561L45.1578 9.29801L45.6681 10.8339L44.2649 9.88875L42.7341 10.8339L43.3719 9.29801L41.9688 8.35282H43.6271L44.2649 6.8169ZM48.9847 1.38208L49.3674 2.32727H50.643L49.6225 3.03615L50.0052 4.09949L48.9847 3.3906L48.0918 4.09949L48.4744 3.03615L47.4539 2.32727H48.602L48.9847 1.38208ZM44.2649 1.61838L44.6476 2.56356H45.6681L44.7751 3.1543L45.1578 4.21764L44.2649 3.62689L43.3719 4.21764L43.7546 3.1543L42.8617 2.56356H43.8822L44.2649 1.61838ZM50.5154 5.39912L50.8981 6.46245H52.0462L51.0257 7.17134L51.4084 8.23467L50.5154 7.52578L49.4949 8.23467L49.8776 7.17134L48.8571 6.46245H50.1328L50.5154 5.39912ZM48.2193 8.35282L48.4744 9.41615H49.6225L48.7296 10.0069L49.1123 10.9521L48.2193 10.3613L47.3264 10.9521L47.5815 10.0069L46.6886 9.41615H47.8366L48.2193 8.35282ZM46.8161 4.09949L46.3059 5.28097H44.9027L46.0508 5.98986L45.6681 7.28949L46.8161 6.46245L47.8366 7.28949L47.4539 5.98986L48.602 5.28097H47.1988L46.8161 4.09949Z" fill="#0F32B1"/>
</svg>
